<svg viewBox="0 0 36 36" focusable="false" class="chakra-icon css-lwsugk"><path d="M18 36C15.561 36 13.26 34.929 11.688 33.0615C9.378 33.3255 6.9975 32.454 5.2725 30.729C3.549 29.004 2.679 26.619 2.8875 24.186C1.071 22.74 0 20.439 0 18C0 15.561 1.071 13.26 2.94 11.688C2.6775 9.3825 3.5475 6.9975 5.2725 5.2725C6.9975 3.5475 9.378 2.673 11.814 2.8875C13.26 1.0725 15.561 0 18 0C20.439 0 22.74 1.071 24.312 2.9385C26.625 2.679 29.0025 3.546 30.7275 5.271C32.451 6.996 33.321 9.381 33.1125 11.814C34.929 13.26 36 15.561 36 18C36 20.439 34.929 22.74 33.06 24.312C33.3225 26.6175 32.4525 29.0025 30.7275 30.7275C29.001 32.4525 26.616 33.3165 24.186 33.1125C22.74 34.9275 20.439 36 18 36ZM11.8095 30.114C12.651 30.114 13.431 30.4755 13.9815 31.128C14.9835 32.3175 16.4475 33 18 33C19.5525 33 21.0165 32.3175 22.0185 31.128C22.623 30.4095 23.5035 30.0465 24.4425 30.123C25.9935 30.2535 27.5085 29.703 28.6065 28.605C29.703 27.5085 30.2565 25.9905 30.1245 24.441C30.0435 23.505 30.4095 22.6215 31.1295 22.0155C32.3175 21.015 33 19.5495 33 17.9985C33 16.4475 32.3175 14.982 31.1295 13.9815C30.411 13.377 30.0435 12.492 30.1245 11.556C30.2565 10.0065 29.7045 8.4885 28.6065 7.392C27.5085 6.2955 25.9845 5.751 24.444 5.874C23.505 5.958 22.623 5.5875 22.0185 4.8705C21.0165 3.681 19.5525 2.9985 18 2.9985C16.4475 2.9985 14.9835 3.681 13.9815 4.8705C13.3755 5.589 12.492 5.949 11.5575 5.8755C9.999 5.7405 8.4915 6.2955 7.3935 7.3935C6.297 8.49 5.7435 10.008 5.8755 11.5575C5.9565 12.4935 5.5905 13.377 4.8705 13.983C3.6825 14.9835 3 16.449 3 18C3 19.551 3.6825 21.0165 4.8705 22.017C5.589 22.6215 5.9565 23.5065 5.8755 24.4425C5.7435 25.992 6.2955 27.51 7.3935 28.6065C8.4915 29.703 10.023 30.249 11.556 30.1245C11.6415 30.117 11.7255 30.114 11.8095 30.114ZM19.2015 22.7025L26.31 15.8505C26.9055 15.276 26.9235 14.325 26.3475 13.7295C25.773 13.134 24.8235 13.116 24.2265 13.6905L17.0985 20.562C16.512 21.1485 15.5655 21.1485 14.9385 20.5245L11.5215 17.349C10.9185 16.7865 9.9675 16.8195 9.402 17.427C8.838 18.033 8.8725 18.9825 9.48 19.5465L12.858 22.6845C13.737 23.5635 14.8935 24.003 16.047 24.003C17.1945 24.003 18.336 23.5695 19.203 22.704L19.2015 22.7025Z" fill="#A982EC"></path></svg>